<svg xmlns="http://www.w3.org/2000/svg" width="66.666" height="80" viewBox="0 0 66.666 80"><path d="M70,43.333a13.3,13.3,0,0,0-12.861,10H50v.014l-.007-.007a16.666,16.666,0,0,1-16.66-16.608V36.2a13.335,13.335,0,1,0-6.666,0V63.805a13.335,13.335,0,1,0,6.666,0V52.988A23.246,23.246,0,0,0,49.993,60L50,59.993V60h7.139A13.312,13.312,0,1,0,70,43.333ZM36.667,76.667A6.667,6.667,0,1,1,30,70,6.666,6.666,0,0,1,36.667,76.667ZM30,30a6.667,6.667,0,1,1,6.667-6.667A6.667,6.667,0,0,1,30,30ZM70,63.333a6.667,6.667,0,1,1,6.667-6.666A6.666,6.666,0,0,1,70,63.333Z" transform="translate(-16.667 -10)"></path></svg>