<svg xmlns="http://www.w3.org/2000/svg" height="233" fill="none" viewBox="0 0 2645 231"><path fill="#072462" d="M788.52 207.607c0-43.064-34.226-77.974-76.446-77.974-.511 0-1.021.005-1.529.015v77.96l77.975-.001ZM273.886 101.367c43.064 0 77.974-34.226 77.974-76.446 0-.51-.005-1.02-.015-1.529h-77.959v77.975Z"/><path fill="#E60278" d="M632.569 231c0-85.052-68.948-154-154-154s-154 68.948-154 154l.001.339V231h102.666c.002-28.349 22.984-51.331 51.334-51.331 28.349 0 51.332 22.982 51.333 51.331h102.666Z"/><circle cx="671.558" cy="62.378" r="38.987" fill="#E60278"/><path fill="#072462" d="M.001 101.363c0 58.674 47.566 106.239 106.24 106.239 58.676 0 106.241-47.566 106.241-106.241v-.244.246h-70.827v.001c0 19.558-15.855 35.413-35.413 35.413-19.559 0-35.414-15.855-35.414-35.413v-.001H.001ZM106.867-4.877a107.956 107.956 0 0 0-1.251 0h1.251Z"/><path fill="#E60278" d="M2432.56 129.637h70.82v-.001c0-19.558 15.86-35.413 35.42-35.413 19.56 0 35.41 15.855 35.41 35.413v.001h70.83v.215-.213c0-58.675-47.57-106.24-106.24-106.24-58.68 0-106.24 47.564-106.24 106.238Zm106.24 106.242-.62-.001h1.24l-.62.001Z"/><path fill="#072462" d="M1856.52 23.392c0 43.065 34.22 77.975 76.44 77.975.52 0 1.03-.005 1.53-.015v-77.96h-77.97Z"/><path fill="#E60278" d="M2371.15 129.633c-43.06 0-77.97 34.226-77.97 76.446 0 .51 0 1.02.01 1.529h77.96v-77.975Z"/><path fill="#072462" fill-rule="evenodd" d="M1973.48 207.607c21.53 0 38.99-17.455 38.99-38.987 0-21.532-17.46-38.987-38.99-38.987s-38.99 17.455-38.99 38.987c0 21.532 17.46 38.987 38.99 38.987Zm0-25.994c7.18 0 13-5.818 13-12.995 0-7.178-5.82-12.996-13-12.996s-12.99 5.818-12.99 12.996c0 7.177 5.81 12.995 12.99 12.995Z"/><path fill="#072462" d="M2012.47 0c0 85.052 68.95 154 154 154s154-68.948 154-154h-308Z"/></svg>