<svg xmlns="http://www.w3.org/2000/svg" width="80" height="66.668" viewBox="0 0 80 66.668"><g transform="translate(-10 -16.666)"><path d="M83.333,43.334H76.667v30H63.337L60,76.666H40l-3.336-3.332H23.333v-40A3.341,3.341,0,0,1,26.667,30H50V23.334H26.667a10,10,0,0,0-10,10v40H10a10,10,0,0,0,10,10H80a10,10,0,0,0,10-10H83.333Z"></path><path d="M83.333,23.334V20A3.34,3.34,0,0,0,80,16.666H60A3.344,3.344,0,0,0,56.667,20V33.334A3.348,3.348,0,0,0,60,36.666H80a3.343,3.343,0,0,0,3.333-3.332V30L90,36.666v-20ZM76.667,30H63.333V23.334H76.667Z"></path><path d="M50,43.334a6.667,6.667,0,1,1-6.667-6.668A6.664,6.664,0,0,1,50,43.334Z"></path><path d="M46.667,56.666,40,56.67a10,10,0,0,0-10,10H56.667A10,10,0,0,0,46.667,56.666Z"></path></g></svg>